# xmcd
#
# Track frame offsets:
#	150
#	16522
#	38712
#	54133
#	69298
#	88192
#	104569
#	124996
#	150265
#	166399
#	190875
#
# Disc length: 3992 seconds
#
# Revision: 0
# Processed by: cddbd v1.4PL0 Copyright (c) Steve Scherf et al.
# Submitted via: dBpowerAMP V4.0
#
DISCID=7e0f960b
DTITLE=SUNRISE - Simplement
DYEAR=1999
DGENRE=Country
TTITLE0=Bonjour à vous
TTITLE1=La porte derrière elle
TTITLE2=Marianne in L-A
TTITLE3=Sans souvenirs
TTITLE4=May be little baby
TTITLE5=Sophie en ligne
TTITLE6=Honey hornpipe
TTITLE7=Croire à tous ces mots
TTITLE8=Bons les bonbons
TTITLE9=These days
TTITLE10=DATA
EXTD=
EXTT0=
EXTT1=
EXTT2=
EXTT3=
EXTT4=
EXTT5=
EXTT6=
EXTT7=
EXTT8=
EXTT9=
EXTT10=
PLAYORDER=
